<mxfile host="app.diagrams.net" modified="2024-07-05T00:09:48.064Z" agent="Mozilla/5.0 (X11; Linux x86_64) AppleWebKit/537.36 (KHTML, like Gecko) Chrome/126.0.0.0 Safari/537.36" etag="BLylq4ZG7aQH6Qeh0lax" version="24.6.4" type="device">
  <diagram name="Página-1" id="9k69MILTHyMC2VtTsmRX">
    <mxGraphModel dx="1434" dy="847" grid="0" gridSize="10" guides="1" tooltips="1" connect="1" arrows="1" fold="1" page="1" pageScale="1" pageWidth="2339" pageHeight="3300" math="0" shadow="0">
      <root>
        <mxCell id="0" />
        <mxCell id="1" parent="0" />
        <mxCell id="j2cFI5R_WJ1Plps_2SNo-23" value="User computer" style="verticalAlign=top;align=left;spacingTop=8;spacingLeft=2;spacingRight=12;shape=cube;size=10;direction=south;fontStyle=4;html=1;whiteSpace=wrap;fontSize=13;" vertex="1" parent="1">
          <mxGeometry x="71" y="240" width="228" height="150" as="geometry" />
        </mxCell>
        <mxCell id="j2cFI5R_WJ1Plps_2SNo-24" value="«Component»&lt;br style=&quot;font-size: 13px;&quot;&gt;&lt;b style=&quot;font-size: 13px;&quot;&gt;alamctl.py&lt;/b&gt;" style="html=1;dropTarget=0;whiteSpace=wrap;fontSize=13;" vertex="1" parent="1">
          <mxGeometry x="91" y="280" width="180" height="90" as="geometry" />
        </mxCell>
        <mxCell id="j2cFI5R_WJ1Plps_2SNo-25" value="" style="shape=module;jettyWidth=8;jettyHeight=4;fontSize=13;" vertex="1" parent="j2cFI5R_WJ1Plps_2SNo-24">
          <mxGeometry x="1" width="20" height="20" relative="1" as="geometry">
            <mxPoint x="-27" y="7" as="offset" />
          </mxGeometry>
        </mxCell>
        <mxCell id="j2cFI5R_WJ1Plps_2SNo-77" value="Robot" style="verticalAlign=top;align=left;spacingTop=8;spacingLeft=2;spacingRight=12;shape=cube;size=10;direction=south;fontStyle=4;html=1;whiteSpace=wrap;fontSize=13;" vertex="1" parent="1">
          <mxGeometry x="450" y="96" width="694" height="446" as="geometry" />
        </mxCell>
        <mxCell id="j2cFI5R_WJ1Plps_2SNo-135" value="Firmware" style="shape=module;align=left;spacingLeft=20;align=center;verticalAlign=top;whiteSpace=wrap;html=1;fontSize=13;" vertex="1" parent="1">
          <mxGeometry x="478" y="144" width="623" height="382" as="geometry" />
        </mxCell>
        <mxCell id="j2cFI5R_WJ1Plps_2SNo-136" style="edgeStyle=orthogonalEdgeStyle;rounded=0;orthogonalLoop=1;jettySize=auto;html=1;exitX=1;exitY=0.25;exitDx=0;exitDy=0;entryX=0;entryY=0.25;entryDx=0;entryDy=0;endArrow=open;endFill=0;dashed=1;fontSize=13;" edge="1" parent="1" source="j2cFI5R_WJ1Plps_2SNo-138" target="j2cFI5R_WJ1Plps_2SNo-147">
          <mxGeometry relative="1" as="geometry" />
        </mxCell>
        <mxCell id="j2cFI5R_WJ1Plps_2SNo-137" style="edgeStyle=orthogonalEdgeStyle;rounded=0;orthogonalLoop=1;jettySize=auto;html=1;exitX=1;exitY=0.5;exitDx=0;exitDy=0;entryX=0;entryY=0.5;entryDx=0;entryDy=0;endArrow=open;endFill=0;dashed=1;fontSize=13;" edge="1" parent="1" source="j2cFI5R_WJ1Plps_2SNo-138" target="j2cFI5R_WJ1Plps_2SNo-142">
          <mxGeometry relative="1" as="geometry" />
        </mxCell>
        <mxCell id="j2cFI5R_WJ1Plps_2SNo-138" value="«Component»&lt;br style=&quot;font-size: 13px;&quot;&gt;&lt;b style=&quot;font-size: 13px;&quot;&gt;AlamWare.ino&lt;/b&gt;" style="html=1;dropTarget=0;whiteSpace=wrap;fontSize=13;" vertex="1" parent="1">
          <mxGeometry x="510" y="243" width="140" height="50" as="geometry" />
        </mxCell>
        <mxCell id="j2cFI5R_WJ1Plps_2SNo-139" value="" style="shape=module;jettyWidth=8;jettyHeight=4;fontSize=13;" vertex="1" parent="j2cFI5R_WJ1Plps_2SNo-138">
          <mxGeometry x="1" width="20" height="20" relative="1" as="geometry">
            <mxPoint x="-27" y="7" as="offset" />
          </mxGeometry>
        </mxCell>
        <mxCell id="j2cFI5R_WJ1Plps_2SNo-140" style="edgeStyle=orthogonalEdgeStyle;rounded=0;orthogonalLoop=1;jettySize=auto;html=1;entryX=0.5;entryY=0;entryDx=0;entryDy=0;endArrow=open;endFill=0;dashed=1;fontSize=13;" edge="1" parent="1" source="j2cFI5R_WJ1Plps_2SNo-142" target="j2cFI5R_WJ1Plps_2SNo-150">
          <mxGeometry relative="1" as="geometry" />
        </mxCell>
        <mxCell id="j2cFI5R_WJ1Plps_2SNo-141" style="edgeStyle=orthogonalEdgeStyle;rounded=0;orthogonalLoop=1;jettySize=auto;html=1;exitX=0.75;exitY=1;exitDx=0;exitDy=0;endArrow=open;endFill=0;dashed=1;fontSize=13;" edge="1" parent="1" source="j2cFI5R_WJ1Plps_2SNo-142" target="j2cFI5R_WJ1Plps_2SNo-145">
          <mxGeometry relative="1" as="geometry" />
        </mxCell>
        <mxCell id="j2cFI5R_WJ1Plps_2SNo-142" value="«Component»&lt;br style=&quot;font-size: 13px;&quot;&gt;&lt;b style=&quot;font-size: 13px;&quot;&gt;Commands.h&lt;/b&gt;" style="html=1;dropTarget=0;whiteSpace=wrap;fontSize=13;" vertex="1" parent="1">
          <mxGeometry x="720" y="263" width="140" height="50" as="geometry" />
        </mxCell>
        <mxCell id="j2cFI5R_WJ1Plps_2SNo-143" value="" style="shape=module;jettyWidth=8;jettyHeight=4;fontSize=13;" vertex="1" parent="j2cFI5R_WJ1Plps_2SNo-142">
          <mxGeometry x="1" width="20" height="20" relative="1" as="geometry">
            <mxPoint x="-27" y="7" as="offset" />
          </mxGeometry>
        </mxCell>
        <mxCell id="j2cFI5R_WJ1Plps_2SNo-144" style="edgeStyle=orthogonalEdgeStyle;rounded=0;orthogonalLoop=1;jettySize=auto;html=1;exitX=0;exitY=0.5;exitDx=0;exitDy=0;entryX=1;entryY=0.5;entryDx=0;entryDy=0;endArrow=open;endFill=0;dashed=1;fontSize=13;" edge="1" parent="1" source="j2cFI5R_WJ1Plps_2SNo-145" target="j2cFI5R_WJ1Plps_2SNo-150">
          <mxGeometry relative="1" as="geometry" />
        </mxCell>
        <mxCell id="j2cFI5R_WJ1Plps_2SNo-145" value="«Component»&lt;br style=&quot;font-size: 13px;&quot;&gt;&lt;b style=&quot;font-size: 13px;&quot;&gt;NamedActuators.h&lt;/b&gt;" style="html=1;dropTarget=0;whiteSpace=wrap;fontSize=13;" vertex="1" parent="1">
          <mxGeometry x="904" y="365.5" width="180" height="45" as="geometry" />
        </mxCell>
        <mxCell id="j2cFI5R_WJ1Plps_2SNo-146" value="" style="shape=module;jettyWidth=8;jettyHeight=4;fontSize=13;" vertex="1" parent="j2cFI5R_WJ1Plps_2SNo-145">
          <mxGeometry x="1" width="20" height="20" relative="1" as="geometry">
            <mxPoint x="-27" y="7" as="offset" />
          </mxGeometry>
        </mxCell>
        <mxCell id="j2cFI5R_WJ1Plps_2SNo-147" value="«Component»&lt;br style=&quot;font-size: 13px;&quot;&gt;&lt;b style=&quot;font-size: 13px;&quot;&gt;Memory.h&lt;/b&gt;" style="html=1;dropTarget=0;whiteSpace=wrap;fontSize=13;" vertex="1" parent="1">
          <mxGeometry x="720" y="193" width="140" height="50" as="geometry" />
        </mxCell>
        <mxCell id="j2cFI5R_WJ1Plps_2SNo-148" value="" style="shape=module;jettyWidth=8;jettyHeight=4;fontSize=13;" vertex="1" parent="j2cFI5R_WJ1Plps_2SNo-147">
          <mxGeometry x="1" width="20" height="20" relative="1" as="geometry">
            <mxPoint x="-27" y="7" as="offset" />
          </mxGeometry>
        </mxCell>
        <mxCell id="j2cFI5R_WJ1Plps_2SNo-149" style="edgeStyle=orthogonalEdgeStyle;rounded=0;orthogonalLoop=1;jettySize=auto;html=1;exitX=0.25;exitY=1;exitDx=0;exitDy=0;entryX=0.25;entryY=0;entryDx=0;entryDy=0;endArrow=open;endFill=0;dashed=1;fontSize=13;" edge="1" parent="1" source="j2cFI5R_WJ1Plps_2SNo-150" target="j2cFI5R_WJ1Plps_2SNo-153">
          <mxGeometry relative="1" as="geometry" />
        </mxCell>
        <mxCell id="j2cFI5R_WJ1Plps_2SNo-150" value="«Component»&lt;br style=&quot;font-size: 13px;&quot;&gt;&lt;b style=&quot;font-size: 13px;&quot;&gt;RodActuator.h&lt;/b&gt;" style="html=1;dropTarget=0;whiteSpace=wrap;fontSize=13;" vertex="1" parent="1">
          <mxGeometry x="720" y="363" width="140" height="50" as="geometry" />
        </mxCell>
        <mxCell id="j2cFI5R_WJ1Plps_2SNo-151" value="" style="shape=module;jettyWidth=8;jettyHeight=4;fontSize=13;" vertex="1" parent="j2cFI5R_WJ1Plps_2SNo-150">
          <mxGeometry x="1" width="20" height="20" relative="1" as="geometry">
            <mxPoint x="-27" y="7" as="offset" />
          </mxGeometry>
        </mxCell>
        <mxCell id="j2cFI5R_WJ1Plps_2SNo-152" style="edgeStyle=orthogonalEdgeStyle;rounded=0;orthogonalLoop=1;jettySize=auto;html=1;exitX=0.75;exitY=0;exitDx=0;exitDy=0;entryX=0.75;entryY=1;entryDx=0;entryDy=0;endArrow=open;endFill=0;dashed=1;fontSize=13;" edge="1" parent="1" source="j2cFI5R_WJ1Plps_2SNo-153" target="j2cFI5R_WJ1Plps_2SNo-150">
          <mxGeometry relative="1" as="geometry" />
        </mxCell>
        <mxCell id="j2cFI5R_WJ1Plps_2SNo-153" value="«Component»&lt;br style=&quot;font-size: 13px;&quot;&gt;&lt;b style=&quot;font-size: 13px;&quot;&gt;RodActuator.cpp&lt;/b&gt;" style="html=1;dropTarget=0;whiteSpace=wrap;fontSize=13;" vertex="1" parent="1">
          <mxGeometry x="724" y="452" width="140" height="50" as="geometry" />
        </mxCell>
        <mxCell id="j2cFI5R_WJ1Plps_2SNo-154" value="" style="shape=module;jettyWidth=8;jettyHeight=4;fontSize=13;" vertex="1" parent="j2cFI5R_WJ1Plps_2SNo-153">
          <mxGeometry x="1" width="20" height="20" relative="1" as="geometry">
            <mxPoint x="-27" y="7" as="offset" />
          </mxGeometry>
        </mxCell>
        <mxCell id="j2cFI5R_WJ1Plps_2SNo-155" style="edgeStyle=orthogonalEdgeStyle;rounded=0;orthogonalLoop=1;jettySize=auto;html=1;exitX=0.5;exitY=1;exitDx=0;exitDy=0;exitPerimeter=0;endArrow=open;endFill=0;dashed=1;fontSize=13;" edge="1" parent="1" source="j2cFI5R_WJ1Plps_2SNo-156" target="j2cFI5R_WJ1Plps_2SNo-157">
          <mxGeometry relative="1" as="geometry" />
        </mxCell>
        <mxCell id="j2cFI5R_WJ1Plps_2SNo-156" value="QuickPID.h" style="shape=folder;fontStyle=1;spacingTop=10;tabWidth=40;tabHeight=14;tabPosition=left;html=1;whiteSpace=wrap;fontSize=13;" vertex="1" parent="1">
          <mxGeometry x="532" y="318" width="80" height="50" as="geometry" />
        </mxCell>
        <mxCell id="j2cFI5R_WJ1Plps_2SNo-157" value="sTune.h" style="shape=folder;fontStyle=1;spacingTop=10;tabWidth=40;tabHeight=14;tabPosition=left;html=1;whiteSpace=wrap;fontSize=13;" vertex="1" parent="1">
          <mxGeometry x="537" y="398" width="70" height="50" as="geometry" />
        </mxCell>
        <mxCell id="j2cFI5R_WJ1Plps_2SNo-158" value="Arduino.h" style="shape=folder;fontStyle=1;spacingTop=10;tabWidth=40;tabHeight=14;tabPosition=left;html=1;whiteSpace=wrap;fontSize=13;" vertex="1" parent="1">
          <mxGeometry x="510" y="173" width="70" height="50" as="geometry" />
        </mxCell>
        <mxCell id="j2cFI5R_WJ1Plps_2SNo-159" style="edgeStyle=orthogonalEdgeStyle;rounded=0;orthogonalLoop=1;jettySize=auto;html=1;exitX=0.25;exitY=0;exitDx=0;exitDy=0;entryX=0.5;entryY=1;entryDx=0;entryDy=0;entryPerimeter=0;endArrow=open;endFill=0;dashed=1;fontSize=13;" edge="1" parent="1" source="j2cFI5R_WJ1Plps_2SNo-138" target="j2cFI5R_WJ1Plps_2SNo-158">
          <mxGeometry relative="1" as="geometry" />
        </mxCell>
        <mxCell id="j2cFI5R_WJ1Plps_2SNo-160" value="SerialCommands.h" style="shape=folder;fontStyle=1;spacingTop=10;tabWidth=40;tabHeight=14;tabPosition=left;html=1;whiteSpace=wrap;fontSize=13;" vertex="1" parent="1">
          <mxGeometry x="937" y="243" width="140" height="50" as="geometry" />
        </mxCell>
        <mxCell id="j2cFI5R_WJ1Plps_2SNo-161" style="edgeStyle=orthogonalEdgeStyle;rounded=0;orthogonalLoop=1;jettySize=auto;html=1;exitX=1;exitY=0.25;exitDx=0;exitDy=0;entryX=0;entryY=0;entryDx=0;entryDy=32;entryPerimeter=0;endArrow=open;endFill=0;dashed=1;fontSize=13;" edge="1" parent="1" source="j2cFI5R_WJ1Plps_2SNo-142" target="j2cFI5R_WJ1Plps_2SNo-160">
          <mxGeometry relative="1" as="geometry" />
        </mxCell>
        <mxCell id="j2cFI5R_WJ1Plps_2SNo-162" style="edgeStyle=orthogonalEdgeStyle;rounded=0;orthogonalLoop=1;jettySize=auto;html=1;exitX=0;exitY=0.25;exitDx=0;exitDy=0;entryX=0;entryY=0;entryDx=80;entryDy=32;entryPerimeter=0;endArrow=open;endFill=0;dashed=1;fontSize=13;" edge="1" parent="1" source="j2cFI5R_WJ1Plps_2SNo-150" target="j2cFI5R_WJ1Plps_2SNo-156">
          <mxGeometry relative="1" as="geometry" />
        </mxCell>
        <mxCell id="j2cFI5R_WJ1Plps_2SNo-163" style="edgeStyle=orthogonalEdgeStyle;rounded=0;orthogonalLoop=1;jettySize=auto;html=1;exitX=0;exitY=0.5;exitDx=0;exitDy=0;entryX=0;entryY=0;entryDx=70;entryDy=32;entryPerimeter=0;endArrow=open;endFill=0;dashed=1;fontSize=13;" edge="1" parent="1" source="j2cFI5R_WJ1Plps_2SNo-150" target="j2cFI5R_WJ1Plps_2SNo-157">
          <mxGeometry relative="1" as="geometry" />
        </mxCell>
        <mxCell id="j2cFI5R_WJ1Plps_2SNo-168" value="" style="rounded=0;orthogonalLoop=1;jettySize=auto;html=1;endArrow=halfCircle;endFill=0;endSize=6;strokeWidth=1;sketch=0;exitX=0.018;exitY=0.479;exitDx=0;exitDy=0;exitPerimeter=0;entryX=0.6;entryY=-0.1;entryDx=0;entryDy=0;entryPerimeter=0;fontSize=13;" edge="1" target="j2cFI5R_WJ1Plps_2SNo-170" parent="1" source="j2cFI5R_WJ1Plps_2SNo-135">
          <mxGeometry relative="1" as="geometry">
            <mxPoint x="392" y="268" as="sourcePoint" />
          </mxGeometry>
        </mxCell>
        <mxCell id="j2cFI5R_WJ1Plps_2SNo-169" value="" style="rounded=0;orthogonalLoop=1;jettySize=auto;html=1;endArrow=oval;endFill=0;sketch=0;sourcePerimeterSpacing=0;targetPerimeterSpacing=0;endSize=10;fontSize=13;" edge="1" target="j2cFI5R_WJ1Plps_2SNo-170" parent="1" source="j2cFI5R_WJ1Plps_2SNo-24">
          <mxGeometry relative="1" as="geometry">
            <mxPoint x="352" y="268" as="sourcePoint" />
          </mxGeometry>
        </mxCell>
        <mxCell id="j2cFI5R_WJ1Plps_2SNo-170" value="" style="ellipse;whiteSpace=wrap;html=1;align=center;aspect=fixed;fillColor=none;strokeColor=none;resizable=0;perimeter=centerPerimeter;rotatable=0;allowArrows=0;points=[];outlineConnect=1;fontSize=13;" vertex="1" parent="1">
          <mxGeometry x="366" y="322" width="10" height="10" as="geometry" />
        </mxCell>
        <mxCell id="j2cFI5R_WJ1Plps_2SNo-171" value="Serial&lt;div style=&quot;font-size: 13px;&quot;&gt;communication&lt;/div&gt;" style="text;html=1;align=center;verticalAlign=middle;resizable=0;points=[];autosize=1;strokeColor=none;fillColor=none;fontSize=13;" vertex="1" parent="1">
          <mxGeometry x="318.5" y="271" width="105" height="43" as="geometry" />
        </mxCell>
      </root>
    </mxGraphModel>
  </diagram>
</mxfile>
